<svg width="170" height="34" viewBox="0 0 170 34" fill="none" xmlns="http://www.w3.org/2000/svg">
<path d="M25.5312 6.6875C26.1823 6.6875 26.7357 6.91536 27.1914 7.37109C27.6471 7.82682 27.875 8.38021 27.875 9.03125V26.2188C27.875 26.8698 27.6471 27.4232 27.1914 27.8789C26.7357 28.3346 26.1823 28.5625 25.5312 28.5625H18.8418V21.1406H21.6738L22.2109 17.625H18.8418V15.3301C18.8418 14.0931 19.4928 13.4746 20.7949 13.4746H22.3086V10.4961C21.3971 10.3333 20.502 10.252 19.623 10.252C18.679 10.252 17.8652 10.431 17.1816 10.7891C16.5306 11.1471 16.0098 11.6842 15.6191 12.4004C15.2285 13.1165 15.0332 13.9629 15.0332 14.9395V17.625H11.957V21.1406H15.0332V28.5625H8.34375C7.69271 28.5625 7.13932 28.3346 6.68359 27.8789C6.22786 27.4232 6 26.8698 6 26.2188V9.03125C6 8.38021 6.22786 7.82682 6.68359 7.37109C7.13932 6.91536 7.69271 6.6875 8.34375 6.6875H25.5312Z" fill="black"/>
<path d="M46.9824 13.6699C48.0892 12.5632 49.4238 12.0098 50.9863 12.0098C52.5488 12.0098 53.8672 12.5632 54.9414 13.6699C56.0482 14.7441 56.6016 16.0625 56.6016 17.625C56.6016 19.1875 56.0482 20.5221 54.9414 21.6289C53.8672 22.7031 52.5488 23.2402 50.9863 23.2402C49.4238 23.2402 48.0892 22.7031 46.9824 21.6289C45.9082 20.5221 45.3711 19.1875 45.3711 17.625C45.3711 16.0625 45.9082 14.7441 46.9824 13.6699ZM48.3984 20.2129C49.1146 20.929 49.9772 21.2871 50.9863 21.2871C51.9954 21.2871 52.8581 20.929 53.5742 20.2129C54.2904 19.4967 54.6484 18.6341 54.6484 17.625C54.6484 16.6159 54.2904 15.7533 53.5742 15.0371C52.8581 14.321 51.9954 13.9629 50.9863 13.9629C49.9772 13.9629 49.1146 14.321 48.3984 15.0371C47.6823 15.7533 47.3242 16.6159 47.3242 17.625C47.3242 18.6341 47.6823 19.4967 48.3984 20.2129ZM57.7246 10.8867C57.985 11.1146 58.1152 11.4076 58.1152 11.7656C58.1152 12.1237 57.985 12.4329 57.7246 12.6934C57.4967 12.9538 57.2038 13.084 56.8457 13.084C56.4876 13.084 56.1784 12.9538 55.918 12.6934C55.6576 12.4329 55.5273 12.1237 55.5273 11.7656C55.5273 11.4076 55.6576 11.1146 55.918 10.8867C56.1784 10.6263 56.4876 10.4961 56.8457 10.4961C57.2038 10.4961 57.4967 10.6263 57.7246 10.8867ZM61.875 13.1328C61.9076 14.0117 61.9238 15.5091 61.9238 17.625C61.9238 19.7409 61.9076 21.2383 61.875 22.1172C61.7773 24.1029 61.1751 25.6491 60.0684 26.7559C58.9941 27.8301 57.4642 28.3997 55.4785 28.4648C54.5996 28.5299 53.1022 28.5625 50.9863 28.5625C48.8704 28.5625 47.373 28.5299 46.4941 28.4648C44.5085 28.3672 42.9785 27.7812 41.9043 26.707C41.4811 26.3164 41.1393 25.8607 40.8789 25.3398C40.6185 24.819 40.4232 24.3145 40.293 23.8262C40.1953 23.3379 40.1465 22.7682 40.1465 22.1172C40.0814 21.2383 40.0488 19.7409 40.0488 17.625C40.0488 15.5091 40.0814 13.9954 40.1465 13.084C40.2441 11.1309 40.8301 9.61719 41.9043 8.54297C42.9785 7.4362 44.5085 6.83398 46.4941 6.73633C47.373 6.70378 48.8704 6.6875 50.9863 6.6875C53.1022 6.6875 54.5996 6.70378 55.4785 6.73633C57.4642 6.83398 58.9941 7.4362 60.0684 8.54297C61.1751 9.61719 61.7773 11.1471 61.875 13.1328ZM59.5312 24.0703C59.6289 23.8099 59.7103 23.4844 59.7754 23.0938C59.8405 22.6706 59.8893 22.1823 59.9219 21.6289C59.9544 21.043 59.9707 20.571 59.9707 20.2129C59.9707 19.8548 59.9707 19.3503 59.9707 18.6992C59.9707 18.0482 59.9707 17.6901 59.9707 17.625C59.9707 17.5273 59.9707 17.1693 59.9707 16.5508C59.9707 15.8997 59.9707 15.3952 59.9707 15.0371C59.9707 14.679 59.9544 14.2233 59.9219 13.6699C59.8893 13.084 59.8405 12.5957 59.7754 12.2051C59.7103 11.7819 59.6289 11.4401 59.5312 11.1797C59.1406 10.1706 58.4408 9.4707 57.4316 9.08008C57.1712 8.98242 56.8294 8.90104 56.4062 8.83594C56.0156 8.77083 55.5273 8.72201 54.9414 8.68945C54.388 8.6569 53.9323 8.64062 53.5742 8.64062C53.2487 8.64062 52.7441 8.64062 52.0605 8.64062C51.4095 8.64062 51.0514 8.64062 50.9863 8.64062C50.9212 8.64062 50.5632 8.64062 49.9121 8.64062C49.2611 8.64062 48.7565 8.64062 48.3984 8.64062C48.0404 8.64062 47.5684 8.6569 46.9824 8.68945C46.429 8.72201 45.9408 8.77083 45.5176 8.83594C45.127 8.90104 44.8014 8.98242 44.541 9.08008C43.5319 9.4707 42.832 10.1706 42.4414 11.1797C42.3438 11.4401 42.2624 11.7819 42.1973 12.2051C42.1322 12.5957 42.0833 13.084 42.0508 13.6699C42.0182 14.2233 42.002 14.679 42.002 15.0371C42.002 15.3626 42.002 15.8672 42.002 16.5508C42.002 17.2018 42.002 17.5599 42.002 17.625C42.002 17.7552 42.002 18.0645 42.002 18.5527C42.002 19.0085 42.002 19.3991 42.002 19.7246C42.002 20.0176 42.002 20.4082 42.002 20.8965C42.0345 21.3848 42.0671 21.8079 42.0996 22.166C42.1322 22.4915 42.181 22.8333 42.2461 23.1914C42.3112 23.5495 42.3763 23.8424 42.4414 24.0703C42.8646 25.0794 43.5645 25.7793 44.541 26.1699C44.8014 26.2676 45.127 26.349 45.5176 26.4141C45.9408 26.4792 46.429 26.528 46.9824 26.5605C47.5684 26.5931 48.0241 26.6094 48.3496 26.6094C48.7077 26.6094 49.2122 26.6094 49.8633 26.6094C50.5469 26.6094 50.9212 26.6094 50.9863 26.6094C51.084 26.6094 51.4421 26.6094 52.0605 26.6094C52.7116 26.6094 53.2161 26.6094 53.5742 26.6094C53.9323 26.6094 54.388 26.5931 54.9414 26.5605C55.5273 26.528 56.0156 26.4792 56.4062 26.4141C56.8294 26.349 57.1712 26.2676 57.4316 26.1699C58.4408 25.7467 59.1406 25.0469 59.5312 24.0703Z" fill="black"/>
<path d="M95.4121 12.5469C95.4447 12.6771 95.4609 12.8887 95.4609 13.1816C95.4609 14.9069 95.1354 16.6322 94.4844 18.3574C93.8333 20.0501 92.9056 21.6126 91.7012 23.0449C90.5293 24.4447 88.9993 25.584 87.1113 26.4629C85.2233 27.3418 83.14 27.7812 80.8613 27.7812C77.9967 27.7812 75.3763 27.0163 73 25.4863C73.3581 25.5189 73.765 25.5352 74.2207 25.5352C76.597 25.5352 78.7292 24.8027 80.6172 23.3379C79.4779 23.3379 78.4688 23.0124 77.5898 22.3613C76.7435 21.6777 76.1576 20.8314 75.832 19.8223C76.1576 19.8548 76.4668 19.8711 76.7598 19.8711C77.2155 19.8711 77.6712 19.8223 78.127 19.7246C77.3457 19.5618 76.6458 19.2363 76.0273 18.748C75.4089 18.2598 74.9206 17.6738 74.5625 16.9902C74.2044 16.2741 74.0254 15.5091 74.0254 14.6953V14.5977C74.7415 15.0208 75.5065 15.2487 76.3203 15.2812C74.7904 14.2396 74.0254 12.8073 74.0254 10.9844C74.0254 10.0729 74.2695 9.21029 74.7578 8.39648C76.0273 9.99154 77.5736 11.2611 79.3965 12.2051C81.252 13.1491 83.2214 13.6699 85.3047 13.7676C85.2396 13.377 85.207 12.9863 85.207 12.5957C85.207 11.196 85.6953 9.99154 86.6719 8.98242C87.681 7.97331 88.8854 7.46875 90.2852 7.46875C91.7826 7.46875 93.0358 8.00586 94.0449 9.08008C95.2168 8.85221 96.3073 8.44531 97.3164 7.85938C96.9258 9.0638 96.1771 10.0078 95.0703 10.6914C96.0469 10.5612 97.0234 10.2845 98 9.86133C97.2839 10.903 96.4212 11.7982 95.4121 12.5469Z" fill="black"/>
<path d="M131.855 11.1797C131.953 11.5703 132.035 12.0586 132.1 12.6445C132.197 13.2305 132.262 13.8164 132.295 14.4023C132.327 14.9557 132.344 15.4766 132.344 15.9648C132.376 16.4531 132.393 16.86 132.393 17.1855V17.625C132.393 20.5547 132.214 22.7194 131.855 24.1191C131.693 24.6725 131.4 25.1608 130.977 25.584C130.553 26.0072 130.049 26.3001 129.463 26.4629C128.844 26.6257 127.673 26.7559 125.947 26.8535C124.222 26.9186 122.643 26.9674 121.211 27H119.062C113.496 27 110.029 26.821 108.662 26.4629C107.393 26.1048 106.595 25.3236 106.27 24.1191C106.107 23.5007 105.977 22.6543 105.879 21.5801C105.814 20.4733 105.765 19.5456 105.732 18.7969V17.625C105.732 14.7279 105.911 12.5794 106.27 11.1797C106.432 10.5938 106.725 10.0892 107.148 9.66602C107.572 9.24284 108.076 8.94987 108.662 8.78711C109.281 8.62435 110.452 8.51042 112.178 8.44531C113.903 8.34766 115.482 8.28255 116.914 8.25H119.062C124.629 8.25 128.096 8.42904 129.463 8.78711C130.049 8.94987 130.553 9.24284 130.977 9.66602C131.4 10.0892 131.693 10.5938 131.855 11.1797ZM116.328 21.6289L123.311 17.625L116.328 13.6699V21.6289Z" fill="black"/>
<path d="M142 6.6875H163.875V28.5625H142V6.6875ZM160.164 11.8633V11.6191H156.111L153.23 18.8457L149.91 11.6191H145.662V11.8633L147.029 13.5234C147.192 13.6536 147.257 13.8164 147.225 14.0117V20.5059C147.257 20.7337 147.192 20.9453 147.029 21.1406L145.467 22.9961V23.2402H149.861V22.9961L148.299 21.1406C148.136 20.9453 148.071 20.7337 148.104 20.5059V14.8906L151.961 23.2402H152.4L155.672 14.8906V21.5801C155.672 21.7103 155.639 21.8079 155.574 21.873L154.402 23.0449V23.2891H160.164V23.0449L158.992 21.9219C158.895 21.8242 158.862 21.7103 158.895 21.5801V13.3281C158.862 13.1979 158.895 13.084 158.992 12.9863L160.164 11.8633Z" fill="black"/>
</svg>
