<svg width="199" height="39" viewBox="0 0 199 39" fill="none" xmlns="http://www.w3.org/2000/svg">
<path d="M48.528 22.192C48.528 22.6293 48.6027 23.0027 48.752 23.312C48.9013 23.6213 49.1093 23.8773 49.376 24.08C49.6427 24.272 49.9467 24.416 50.288 24.512C50.64 24.5973 51.0187 24.64 51.424 24.64C51.8613 24.64 52.2347 24.592 52.544 24.496C52.8533 24.3893 53.104 24.256 53.296 24.096C53.488 23.936 53.6267 23.7547 53.712 23.552C53.7973 23.3387 53.84 23.1253 53.84 22.912C53.84 22.4747 53.7387 22.1547 53.536 21.952C53.344 21.7387 53.1307 21.5893 52.896 21.504C52.4907 21.3547 52.016 21.216 51.472 21.088C50.9387 20.9493 50.2773 20.7733 49.488 20.56C48.9973 20.432 48.5867 20.2667 48.256 20.064C47.936 19.8507 47.68 19.616 47.488 19.36C47.296 19.104 47.1573 18.832 47.072 18.544C46.9973 18.256 46.96 17.9627 46.96 17.664C46.96 17.088 47.0773 16.592 47.312 16.176C47.5573 15.7493 47.8773 15.3973 48.272 15.12C48.6667 14.8427 49.1147 14.64 49.616 14.512C50.1173 14.3733 50.624 14.304 51.136 14.304C51.7333 14.304 52.2933 14.384 52.816 14.544C53.3493 14.6933 53.8133 14.9227 54.208 15.232C54.6133 15.5413 54.9333 15.9253 55.168 16.384C55.4027 16.832 55.52 17.3547 55.52 17.952H53.52C53.4667 17.216 53.216 16.6987 52.768 16.4C52.32 16.0907 51.7493 15.936 51.056 15.936C50.8213 15.936 50.5813 15.9627 50.336 16.016C50.0907 16.0587 49.8667 16.1387 49.664 16.256C49.4613 16.3627 49.2907 16.512 49.152 16.704C49.024 16.896 48.96 17.136 48.96 17.424C48.96 17.8293 49.0827 18.1493 49.328 18.384C49.584 18.608 49.9147 18.7787 50.32 18.896C50.3627 18.9067 50.528 18.9547 50.816 19.04C51.1147 19.1147 51.4453 19.2 51.808 19.296C52.1707 19.392 52.5227 19.488 52.864 19.584C53.216 19.6693 53.4667 19.7333 53.616 19.776C53.9893 19.8933 54.3147 20.0533 54.592 20.256C54.8693 20.4587 55.0987 20.6933 55.28 20.96C55.472 21.216 55.6107 21.4933 55.696 21.792C55.792 22.0907 55.84 22.3893 55.84 22.688C55.84 23.328 55.7067 23.8773 55.44 24.336C55.184 24.784 54.8427 25.152 54.416 25.44C53.9893 25.728 53.504 25.936 52.96 26.064C52.416 26.2027 51.8613 26.272 51.296 26.272C50.6453 26.272 50.032 26.192 49.456 26.032C48.88 25.872 48.3787 25.6267 47.952 25.296C47.5253 24.9653 47.184 24.544 46.928 24.032C46.672 23.5093 46.5387 22.896 46.528 22.192H48.528ZM61.591 14.576H66.631C67.4417 14.576 68.103 14.6933 68.615 14.928C69.127 15.1627 69.5217 15.456 69.799 15.808C70.0763 16.16 70.263 16.544 70.359 16.96C70.4657 17.376 70.519 17.76 70.519 18.112C70.519 18.464 70.4657 18.848 70.359 19.264C70.263 19.6693 70.0763 20.048 69.799 20.4C69.5217 20.752 69.127 21.0453 68.615 21.28C68.103 21.504 67.4417 21.616 66.631 21.616H63.591V26H61.591V14.576ZM63.591 19.984H66.519C66.743 19.984 66.9723 19.952 67.207 19.888C67.4417 19.824 67.655 19.7227 67.847 19.584C68.0497 19.4347 68.2097 19.2427 68.327 19.008C68.455 18.7627 68.519 18.4587 68.519 18.096C68.519 17.7227 68.4657 17.4133 68.359 17.168C68.2523 16.9227 68.1083 16.7307 67.927 16.592C67.7457 16.4427 67.5377 16.3413 67.303 16.288C67.0683 16.2347 66.8177 16.208 66.551 16.208H63.591V19.984ZM78.1314 14.576H80.2594L84.6594 26H82.5154L81.4434 22.976H76.8834L75.8114 26H73.7474L78.1314 14.576ZM77.4274 21.456H80.9154L79.2034 16.544H79.1554L77.4274 21.456ZM89.7473 14.576H95.2033C96.4619 14.576 97.4059 14.848 98.0353 15.392C98.6646 15.936 98.9793 16.6933 98.9793 17.664C98.9793 18.208 98.8993 18.6613 98.7393 19.024C98.5793 19.376 98.3926 19.664 98.1793 19.888C97.9659 20.1013 97.7526 20.256 97.5393 20.352C97.3366 20.448 97.1873 20.512 97.0913 20.544V20.576C97.2619 20.5973 97.4433 20.6507 97.6353 20.736C97.8379 20.8213 98.0246 20.96 98.1953 21.152C98.3659 21.3333 98.5046 21.5733 98.6113 21.872C98.7286 22.1707 98.7873 22.544 98.7873 22.992C98.7873 23.664 98.8353 24.2773 98.9313 24.832C99.0379 25.376 99.1979 25.7653 99.4113 26H97.2673C97.1179 25.7547 97.0273 25.4827 96.9953 25.184C96.9739 24.8853 96.9633 24.5973 96.9633 24.32C96.9633 23.7973 96.9313 23.3493 96.8673 22.976C96.8033 22.592 96.6859 22.2773 96.5153 22.032C96.3446 21.776 96.1099 21.5893 95.8113 21.472C95.5233 21.3547 95.1499 21.296 94.6913 21.296H91.7473V26H89.7473V14.576ZM91.7473 19.776H95.0273C95.6673 19.776 96.1526 19.6267 96.4833 19.328C96.8139 19.0187 96.9792 18.56 96.9792 17.952C96.9792 17.5893 96.9259 17.296 96.8193 17.072C96.7126 16.8373 96.5633 16.656 96.3713 16.528C96.1899 16.4 95.9766 16.3147 95.7313 16.272C95.4966 16.2293 95.2513 16.208 94.9953 16.208H91.7473V19.776ZM105.013 14.576H107.013V19.776L112.101 14.576H114.565L110.005 19.136L114.885 26H112.389L108.645 20.544L107.013 22.16V26H105.013V14.576ZM129.934 26H128.654L128.35 24.656C127.817 25.264 127.283 25.6853 126.75 25.92C126.217 26.1547 125.603 26.272 124.91 26.272C124.057 26.272 123.289 26.1173 122.606 25.808C121.934 25.488 121.363 25.056 120.894 24.512C120.425 23.968 120.062 23.3333 119.806 22.608C119.561 21.8827 119.438 21.1093 119.438 20.288C119.438 19.4773 119.561 18.7093 119.806 17.984C120.062 17.2587 120.425 16.624 120.894 16.08C121.363 15.536 121.934 15.104 122.606 14.784C123.289 14.464 124.057 14.304 124.91 14.304C125.529 14.304 126.115 14.3893 126.67 14.56C127.235 14.72 127.737 14.9653 128.174 15.296C128.611 15.616 128.974 16.0213 129.262 16.512C129.55 17.0027 129.731 17.568 129.806 18.208H127.854C127.801 17.8347 127.683 17.5093 127.502 17.232C127.331 16.944 127.113 16.704 126.846 16.512C126.579 16.32 126.281 16.176 125.95 16.08C125.619 15.984 125.273 15.936 124.91 15.936C124.302 15.936 123.774 16.0587 123.326 16.304C122.889 16.5493 122.531 16.88 122.254 17.296C121.977 17.7013 121.769 18.1653 121.63 18.688C121.502 19.2107 121.438 19.744 121.438 20.288C121.438 20.832 121.502 21.3653 121.63 21.888C121.769 22.4107 121.977 22.88 122.254 23.296C122.531 23.7013 122.889 24.0267 123.326 24.272C123.774 24.5173 124.302 24.64 124.91 24.64C125.422 24.6507 125.875 24.5867 126.27 24.448C126.665 24.2987 126.995 24.0907 127.262 23.824C127.539 23.5467 127.747 23.2107 127.886 22.816C128.025 22.4213 128.099 21.984 128.11 21.504H125.07V19.984H129.934V26ZM136.107 14.576H144.331V16.304H138.107V19.296H143.867V20.928H138.107V24.272H144.443V26H136.107V14.576ZM150.105 14.576H152.217L157.433 22.992H157.465V14.576H159.369V26H157.257L152.057 17.6H152.009V26H150.105V14.576ZM165.732 14.576H167.732V26H165.732V14.576ZM174.057 14.576H176.057V21.232C176.057 21.616 176.073 22.0053 176.105 22.4C176.147 22.7947 176.254 23.152 176.425 23.472C176.606 23.7813 176.873 24.0373 177.225 24.24C177.587 24.4427 178.094 24.544 178.745 24.544C179.395 24.544 179.897 24.4427 180.249 24.24C180.611 24.0373 180.878 23.7813 181.049 23.472C181.23 23.152 181.337 22.7947 181.369 22.4C181.411 22.0053 181.433 21.616 181.433 21.232V14.576H183.433V21.888C183.433 22.624 183.321 23.264 183.097 23.808C182.873 24.352 182.553 24.8107 182.137 25.184C181.731 25.5467 181.241 25.8187 180.665 26C180.089 26.1813 179.449 26.272 178.745 26.272C178.041 26.272 177.401 26.1813 176.825 26C176.249 25.8187 175.753 25.5467 175.337 25.184C174.931 24.8107 174.617 24.352 174.393 23.808C174.169 23.264 174.057 22.624 174.057 21.888V14.576ZM191.044 22.192C191.044 22.6293 191.118 23.0027 191.268 23.312C191.417 23.6213 191.625 23.8773 191.892 24.08C192.158 24.272 192.462 24.416 192.804 24.512C193.156 24.5973 193.534 24.64 193.94 24.64C194.377 24.64 194.75 24.592 195.06 24.496C195.369 24.3893 195.62 24.256 195.812 24.096C196.004 23.936 196.142 23.7547 196.228 23.552C196.313 23.3387 196.356 23.1253 196.356 22.912C196.356 22.4747 196.254 22.1547 196.052 21.952C195.86 21.7387 195.646 21.5893 195.412 21.504C195.006 21.3547 194.532 21.216 193.988 21.088C193.454 20.9493 192.793 20.7733 192.004 20.56C191.513 20.432 191.102 20.2667 190.772 20.064C190.452 19.8507 190.196 19.616 190.004 19.36C189.812 19.104 189.673 18.832 189.588 18.544C189.513 18.256 189.476 17.9627 189.476 17.664C189.476 17.088 189.593 16.592 189.828 16.176C190.073 15.7493 190.393 15.3973 190.788 15.12C191.182 14.8427 191.63 14.64 192.132 14.512C192.633 14.3733 193.14 14.304 193.652 14.304C194.249 14.304 194.809 14.384 195.332 14.544C195.865 14.6933 196.329 14.9227 196.724 15.232C197.129 15.5413 197.449 15.9253 197.684 16.384C197.918 16.832 198.036 17.3547 198.036 17.952H196.036C195.982 17.216 195.732 16.6987 195.284 16.4C194.836 16.0907 194.265 15.936 193.572 15.936C193.337 15.936 193.097 15.9627 192.852 16.016C192.606 16.0587 192.382 16.1387 192.18 16.256C191.977 16.3627 191.806 16.512 191.668 16.704C191.54 16.896 191.476 17.136 191.476 17.424C191.476 17.8293 191.598 18.1493 191.844 18.384C192.1 18.608 192.43 18.7787 192.836 18.896C192.878 18.9067 193.044 18.9547 193.332 19.04C193.63 19.1147 193.961 19.2 194.324 19.296C194.686 19.392 195.038 19.488 195.38 19.584C195.732 19.6693 195.982 19.7333 196.132 19.776C196.505 19.8933 196.83 20.0533 197.108 20.256C197.385 20.4587 197.614 20.6933 197.796 20.96C197.988 21.216 198.126 21.4933 198.212 21.792C198.308 22.0907 198.356 22.3893 198.356 22.688C198.356 23.328 198.222 23.8773 197.956 24.336C197.7 24.784 197.358 25.152 196.932 25.44C196.505 25.728 196.02 25.936 195.476 26.064C194.932 26.2027 194.377 26.272 193.812 26.272C193.161 26.272 192.548 26.192 191.972 26.032C191.396 25.872 190.894 25.6267 190.468 25.296C190.041 24.9653 189.7 24.544 189.444 24.032C189.188 23.5093 189.054 22.896 189.044 22.192H191.044Z" fill="white"/>
<path fill-rule="evenodd" clip-rule="evenodd" d="M29.9559 27.0874L37.7341 19.3093L29.9559 11.5311L22.1778 19.3093L29.9559 27.0874ZM26.7782 30.2218L19 38L11.2218 30.2218L19 22.4437L26.7782 30.2218ZM15.8222 19.3093L8.04407 27.0874L0.265893 19.3093L8.04407 11.5311L15.8222 19.3093ZM26.7782 7.86619L19 15.6444L11.2218 7.86619L19 0.0880183L26.7782 7.86619Z" fill="url(#paint0_linear_4_17)"/>
<defs>
<linearGradient id="paint0_linear_4_17" x1="19" y1="42.1313" x2="19" y2="-1.56988" gradientUnits="userSpaceOnUse">
<stop stop-color="#29B760"/>
<stop offset="1" stop-color="#0DB5F2"/>
</linearGradient>
</defs>
</svg>
