<svg width="749" height="483" viewBox="0 0 749 483" fill="none" xmlns="http://www.w3.org/2000/svg">
<path d="M554.802 212.001H36.3829V0H554.802V212.001ZM37.9606 210.425H553.223V1.57447H37.9606V210.425Z" fill="#3F3D56"/>
<path d="M109.605 80.7991H77.0249C74.8016 67.9715 74.8016 54.8581 77.0249 42.0306H109.605C105.934 54.6938 105.934 68.1359 109.605 80.7991Z" fill="#FF6584"/>
<path d="M137.809 97.3136H170.389C172.613 84.4859 172.613 71.3726 170.389 58.5449H137.809C141.481 71.2083 141.481 84.6502 137.809 97.3136Z" fill="#E6E6E6"/>
<path d="M348.055 105.241H392.326C392.632 105.23 392.923 105.101 393.136 104.881C393.349 104.66 393.468 104.366 393.468 104.06C393.468 103.753 393.349 103.459 393.136 103.239C392.923 103.018 392.632 102.89 392.326 102.879H348.055C347.748 102.89 347.457 103.018 347.244 103.239C347.031 103.459 346.912 103.753 346.912 104.06C346.912 104.366 347.031 104.66 347.244 104.881C347.457 105.101 347.748 105.23 348.055 105.241Z" fill="#E6E6E6"/>
<path d="M391.175 94.0999L398.092 100.401C398.883 101.122 401.06 102.609 401.55 103.551C402.566 105.5 401.475 105.055 399.733 105.73C395.454 107.429 391.512 109.873 388.088 112.947C386.944 113.954 388.622 115.619 389.761 114.617C392.884 111.816 396.471 109.58 400.363 108.007C401.758 107.457 404.405 107.134 405.068 105.475C405.88 103.445 403.295 101.947 402.071 100.831L392.848 92.4299C391.725 91.407 390.048 93.0727 391.175 94.0999Z" fill="#E6E6E6"/>
<path d="M99.948 153.207H132.528C134.751 140.379 134.751 127.266 132.528 114.438H99.948C103.618 127.102 103.618 140.544 99.948 153.207Z" fill="#6C63FF"/>
<path d="M353.148 77.6326H385.728C387.951 64.8051 387.951 51.6918 385.728 38.8641H353.148C356.818 51.5273 356.818 64.9694 353.148 77.6326Z" fill="#6C63FF"/>
<path d="M250.005 141.334V45.6477L241.328 43.7174V149.994L306.798 149.325L306.578 140.757L250.005 141.334Z" fill="#F2F2F2"/>
<path d="M314.686 157.985H235.808V31.2407H314.686V157.985ZM237.385 156.411H313.109V32.8151H237.385V156.411Z" fill="#3F3D56"/>
<path d="M255.683 39.113H242.907V40.6874H255.683V39.113Z" fill="#3F3D56"/>
<path d="M255.683 43.0491H242.907V44.6236H255.683V43.0491Z" fill="#3F3D56"/>
<path d="M255.683 46.9852H242.907V48.5597H255.683V46.9852Z" fill="#3F3D56"/>
<path d="M303.799 114.687H249.217V116.262H303.799V114.687Z" fill="#3F3D56"/>
<path d="M303.799 123.347H249.217V124.921H303.799V123.347Z" fill="#3F3D56"/>
<path d="M303.799 132.006H249.217V133.581H303.799V132.006Z" fill="#3F3D56"/>
<path d="M302.855 49.3469C301.763 49.3469 300.695 49.0237 299.786 48.4181C298.88 47.8128 298.172 46.9521 297.754 45.9452C297.335 44.9382 297.226 43.8301 297.439 42.7613C297.652 41.6923 298.178 40.7103 298.95 39.9397C299.722 39.1691 300.706 38.6442 301.777 38.4316C302.848 38.2189 303.959 38.3281 304.967 38.7452C305.976 39.1622 306.839 39.8686 307.445 40.7747C308.053 41.681 308.375 42.7464 308.375 43.8362C308.374 45.2972 307.793 46.6979 306.758 47.731C305.722 48.7642 304.319 49.3452 302.855 49.3469ZM302.855 39.9002C302.075 39.9002 301.312 40.131 300.664 40.5635C300.015 40.996 299.509 41.6108 299.21 42.33C298.913 43.0492 298.834 43.8406 298.986 44.6042C299.138 45.3677 299.514 46.0691 300.065 46.6196C300.617 47.17 301.32 47.545 302.086 47.6968C302.85 47.8487 303.642 47.7707 304.364 47.4728C305.085 47.1749 305.7 46.6704 306.134 46.0232C306.566 45.3759 306.798 44.6148 306.798 43.8362C306.797 42.7927 306.382 41.7923 305.642 41.0544C304.903 40.3164 303.901 39.9012 302.855 39.9002Z" fill="#3F3D56"/>
<path d="M304.432 96.5809H248.428V60.3683H304.432V96.5809ZM250.007 95.0064H302.855V61.9426H250.007V95.0064Z" fill="#3F3D56"/>
<path d="M249.643 60.4919L248.794 61.8195L303.221 96.4579L304.07 95.1304L249.643 60.4919Z" fill="#3F3D56"/>
<path d="M303.22 60.4919L248.793 95.1296L249.642 96.4572L304.067 61.8195L303.22 60.4919Z" fill="#3F3D56"/>
<path d="M450.357 141.334V45.6477L441.68 43.7174V149.994L507.15 149.325L506.93 140.757L450.357 141.334Z" fill="#F2F2F2"/>
<path d="M515.827 156.411H436.949V29.6663H515.827V156.411ZM438.526 154.836H514.25V31.2408H438.526V154.836Z" fill="#3F3D56"/>
<path d="M456.822 37.5385H444.047V39.113H456.822V37.5385Z" fill="#3F3D56"/>
<path d="M456.822 41.4745H444.047V43.049H456.822V41.4745Z" fill="#3F3D56"/>
<path d="M456.822 45.4108H444.047V46.9853H456.822V45.4108Z" fill="#3F3D56"/>
<path d="M503.994 47.7724C502.903 47.7724 501.835 47.4493 500.928 46.8438C500.019 46.2382 499.311 45.3776 498.893 44.3706C498.475 43.3637 498.367 42.2557 498.58 41.1867C498.793 40.1177 499.318 39.1359 500.09 38.3652C500.862 37.5946 501.847 37.0697 502.917 36.8571C503.988 36.6445 505.099 36.7536 506.107 37.1706C507.117 37.5878 507.979 38.294 508.586 39.2003C509.193 40.1065 509.517 41.1719 509.517 42.2618C509.515 43.7229 508.933 45.1236 507.897 46.1566C506.862 47.1897 505.459 47.7709 503.994 47.7724ZM503.994 38.3256C503.214 38.3256 502.452 38.5565 501.803 38.989C501.155 39.4215 500.649 40.0363 500.351 40.7555C500.052 41.4748 499.974 42.2662 500.127 43.0298C500.279 43.7932 500.655 44.4946 501.207 45.0451C501.758 45.5956 502.461 45.9705 503.225 46.1224C503.99 46.2742 504.784 46.1963 505.504 45.8984C506.225 45.6005 506.84 45.0959 507.274 44.4486C507.708 43.8013 507.938 43.0403 507.938 42.2618C507.938 41.2183 507.521 40.2178 506.782 39.4798C506.043 38.7419 505.041 38.3269 503.994 38.3256Z" fill="#3F3D56"/>
<path d="M505.573 95.0064H449.569V58.7937H505.573V95.0064ZM451.146 93.432H503.994V60.3682H451.146V93.432Z" fill="#3F3D56"/>
<path d="M450.781 58.9172L449.933 60.2448L504.359 94.8829L505.208 93.5554L450.781 58.9172Z" fill="#3F3D56"/>
<path d="M504.361 58.9202L449.931 93.5522L450.78 94.8799L505.21 60.2479L504.361 58.9202Z" fill="#3F3D56"/>
<path d="M505.573 142.24H449.569V106.028H505.573V142.24ZM451.146 140.666H503.994V107.602H451.146V140.666Z" fill="#3F3D56"/>
<path d="M450.781 106.151L449.933 107.479L504.359 142.117L505.208 140.789L450.781 106.151Z" fill="#3F3D56"/>
<path d="M504.361 106.154L449.931 140.786L450.78 142.114L505.21 107.482L504.361 106.154Z" fill="#3F3D56"/>
<path d="M263.227 182.335H295.807C298.029 169.506 298.029 156.394 295.807 143.566H263.227C266.897 156.229 266.897 169.671 263.227 182.335Z" fill="#6C63FF"/>
<path d="M610.6 176.251C621.788 170.149 625.899 156.15 619.783 144.985C613.669 133.82 599.642 129.717 588.456 135.82C577.269 141.924 573.157 155.922 579.273 167.087C585.388 178.252 599.415 182.355 610.6 176.251Z" fill="#FFB8B8"/>
<path d="M635.719 147.811C646.997 147.811 656.141 138.686 656.141 127.43C656.141 116.173 646.997 107.048 635.719 107.048C624.441 107.048 615.297 116.173 615.297 127.43C615.297 138.686 624.441 147.811 635.719 147.811Z" fill="#2F2E41"/>
<path d="M653.334 144.307C650.69 146.214 647.628 147.461 644.404 147.944C641.177 148.428 637.883 148.133 634.796 147.085C631.708 146.037 628.917 144.267 626.655 141.921C624.394 139.576 622.727 136.724 621.797 133.605C622.15 136.401 623.078 139.093 624.525 141.512C625.973 143.931 627.907 146.024 630.206 147.66C632.505 149.295 635.119 150.437 637.882 151.014C640.646 151.59 643.5 151.588 646.263 151.009C649.025 150.429 651.638 149.284 653.934 147.646C656.231 146.008 658.163 143.912 659.608 141.491C661.052 139.07 661.978 136.377 662.327 133.581C662.676 130.785 662.44 127.947 661.635 125.247C662.092 128.875 661.563 132.559 660.103 135.913C658.642 139.266 656.303 142.166 653.334 144.307Z" fill="#2F2E41"/>
<path d="M572.739 144.33C576.305 137.959 577.67 135.299 582.266 131.425C586.331 127.999 591.331 126.993 595.364 130.239C600.135 128.182 605.443 127.716 610.502 128.909C615.559 130.103 620.096 132.893 623.438 136.865C626.781 140.837 628.751 145.779 629.055 150.957C629.359 156.135 627.98 161.274 625.125 165.608C622.272 169.941 618.091 173.241 613.208 175.016C608.325 176.792 602.998 176.947 598.019 175.46C593.04 173.972 588.674 170.923 585.571 166.762C582.467 162.601 580.791 157.552 580.791 152.365C580.794 151.454 580.849 150.544 580.955 149.64C577.45 149.148 576.246 144.821 572.739 144.33Z" fill="#2F2E41"/>
<path d="M543.625 470.534L533.068 467.474L539.871 425.371L555.455 429.889L543.625 470.534Z" fill="#FFB8B8"/>
<path d="M524.856 461.828L546.764 468.179L543.04 480.974L509.857 471.355L510.305 469.814C510.735 468.335 511.453 466.956 512.417 465.756C513.381 464.554 514.573 463.555 515.924 462.812C517.276 462.072 518.759 461.603 520.292 461.434C521.826 461.265 523.376 461.399 524.856 461.828Z" fill="#2F2E41"/>
<path d="M652.739 470.786L641.744 470.784L636.515 428.46H652.74L652.739 470.786Z" fill="#FFB8B8"/>
<path d="M632.283 467.65H655.096V480.974H620.54V479.369C620.54 477.829 620.843 476.307 621.434 474.884C622.024 473.462 622.889 472.171 623.979 471.083C625.069 469.993 626.364 469.131 627.789 468.541C629.213 467.952 630.74 467.65 632.283 467.65Z" fill="#2F2E41"/>
<path d="M626.87 323.447C626.03 322.433 625.424 321.247 625.095 319.973C624.765 318.699 624.719 317.369 624.961 316.074C625.202 314.782 625.725 313.556 626.491 312.485C627.258 311.415 628.251 310.525 629.399 309.88L623.69 278.406L639.005 284.939L642.078 313.825C643.038 315.823 643.229 318.102 642.616 320.232C642.004 322.361 640.63 324.193 638.756 325.378C636.881 326.564 634.637 327.024 632.445 326.667C630.254 326.311 628.27 325.167 626.87 323.447Z" fill="#FFB8B8"/>
<path d="M635.08 248.093L617.113 193.658C616.738 193.033 612.265 186.008 602.528 188.997C601.452 189.299 600.451 189.817 599.587 190.522C598.721 191.226 598.01 192.1 597.498 193.091C594.647 198.544 597.305 206.971 597.318 207.015L619.437 256.486L619.46 256.537L626.442 307.341L641.52 304.285L635.08 248.093Z" fill="#FFBA35"/>
<path d="M515.661 449.474L542.703 366.714L574.058 295.186L573.607 260.495L610.815 251.837L615.147 266.375C640.208 282.877 631.952 314.622 631.363 316.749L669.121 455.822L627.951 460.388L600.315 328.712L574.829 382.216L556.808 462.25L515.661 449.474Z" fill="#2F2E41"/>
<path d="M570.924 231.374C563.527 217.222 568.875 211.832 576.963 203.681C580.268 200.462 583.37 197.039 586.249 193.436C598.868 177.245 613.512 185.197 613.659 185.28L613.741 185.325L617.36 190.741C629.283 202.718 611.202 235.627 609.828 238.078L610.735 261.611L572.282 265.266L570.924 231.374Z" fill="#FFBA35"/>
<path d="M585.574 322.224C585.02 321.029 584.735 319.729 584.739 318.413C584.742 317.097 585.035 315.798 585.598 314.608C586.158 313.417 586.974 312.363 587.988 311.522C589.001 310.68 590.188 310.07 591.463 309.736L593.919 277.845L607.078 288.032L602.729 316.754C603.15 318.928 602.757 321.182 601.624 323.088C600.494 324.993 598.7 326.419 596.586 327.093C594.472 327.766 592.182 327.644 590.152 326.746C588.124 325.848 586.495 324.24 585.574 322.224Z" fill="#FFB8B8"/>
<path d="M588.36 307.272L594.573 255.635L585.718 202.202C585.698 201.827 585.258 192.965 589.62 188.164C590.436 187.255 591.43 186.525 592.541 186.017C593.651 185.511 594.855 185.237 596.077 185.214C607.139 184.729 609.784 193.928 609.809 194.021L613.413 251.424L605.285 308.21L588.36 307.272Z" fill="#FFBA35"/>
<path d="M52.0691 373.875V375.871C52.0719 379.177 53.3894 382.347 55.7321 384.685C58.0748 387.024 61.2514 388.338 64.5645 388.341H170.526C173.84 388.34 177.018 387.025 179.361 384.687C181.704 382.348 183.021 379.177 183.021 375.871V373.875C183.027 370.956 182.001 368.13 180.122 365.894C179.497 365.151 178.789 364.482 178.014 363.899H123.053C122.39 363.898 121.755 363.635 121.286 363.168C120.818 362.7 120.554 362.066 120.554 361.404H64.5645C61.252 361.409 58.0764 362.724 55.734 365.062C53.3916 367.4 52.0736 370.569 52.0691 373.875Z" fill="#CCCCCC"/>
<path d="M110.552 479.632H123.548V387.846H110.552V479.632Z" fill="#CCCCCC"/>
<path d="M73.566 479.175C73.566 480.577 93.2582 479.717 117.55 479.717C141.842 479.717 161.534 480.577 161.534 479.175C161.534 477.775 141.842 466.662 117.55 466.662C93.2582 466.662 73.566 477.775 73.566 479.175Z" fill="#CCCCCC"/>
<path d="M183.713 467.947L196.128 467.946L202.034 420.157L183.711 420.158L183.713 467.947Z" fill="#A0616A"/>
<path d="M180.548 463.902L204.994 463.9H204.996C209.128 463.9 213.09 465.539 216.013 468.455C218.935 471.37 220.576 475.325 220.576 479.45V479.955L180.548 479.957V463.902Z" fill="#2F2E41"/>
<path d="M135.659 442.566L125.602 449.829L92.7466 414.567L107.591 403.849L135.659 442.566Z" fill="#A0616A"/>
<path d="M145.279 450.444L112.849 473.862L112.552 473.453C110.13 470.111 109.137 465.946 109.791 461.875C110.445 457.803 112.693 454.158 116.041 451.739L135.849 437.435L145.279 450.444Z" fill="#2F2E41"/>
<path d="M149.246 256.801C149.246 256.801 136.222 247.065 122.139 256.801L112.391 337.939H141.659L145.994 311.974L155.75 273.028L149.246 256.801Z" fill="#CCCCCC"/>
<path d="M178.566 382.112L126.04 364.993L100.999 384.826L127.601 425.414L113.687 443.625L113.289 443.172C111.563 441.21 71.0144 394.963 71.1318 381.847C71.2482 368.839 75.5664 355.763 75.6099 355.633L88.7819 336.973L107.477 331.487L169.368 340.156L169.47 340.17L194.476 355.36C196.95 356.948 199.037 359.068 200.579 361.567C202.124 364.066 203.085 366.878 203.394 369.798C204.467 379.444 206.626 456.688 206.648 457.468L206.662 457.975H179.653L178.566 382.112Z" fill="#2F2E41"/>
<path d="M145.252 362.73C136.123 358.681 124.464 342.871 122.542 340.204C118.785 342.244 91.3907 356.857 83.668 353.1C82.5461 353.717 77.4757 356.737 76.5623 361.293L76.3333 362.438L75.6715 361.476C75.5495 361.3 63.6513 343.643 79.0435 332.668C93.0781 322.664 96.8538 312.557 97.2494 311.401L89.6342 271.23L89.8341 271.044C90.4587 270.466 105.283 256.853 118.81 255.233L127.154 253.766L127.519 285.47V326.056C134.261 325.211 144.926 254.294 144.926 254.294L150.5 256.332C151.941 256.607 168.125 259.834 172.421 266.264L172.56 266.474L157.84 306.195L153.534 312.665V320.945L178.686 342.774L178.328 343.147C177.472 344.043 158.925 363.296 148.12 363.293C147.135 363.308 146.157 363.118 145.252 362.73Z" fill="#3F3D56"/>
<path d="M156.942 233.072C163.367 221.342 159.047 206.638 147.296 200.226C135.545 193.814 120.811 198.125 114.387 209.853C107.963 221.581 112.282 236.287 124.033 242.699C135.785 249.109 150.519 244.8 156.942 233.072Z" fill="#A0616A"/>
<path d="M129.559 369.937C129.732 368.563 130.206 367.244 130.946 366.072C131.686 364.899 132.675 363.904 133.842 363.155C135.009 362.405 136.327 361.92 137.703 361.734C139.078 361.548 140.478 361.664 141.803 362.076L155.702 345.448L167.887 351.413L147.929 374.62C147.088 376.796 145.476 378.589 143.399 379.658C141.322 380.729 138.925 380.999 136.66 380.423C134.395 379.846 132.422 378.459 131.113 376.527C129.804 374.595 129.251 372.251 129.559 369.937Z" fill="#A0616A"/>
<path d="M139.382 355.837L161.188 326.458L155.786 297.35L164.549 264.556L164.77 264.462C164.947 264.385 169.139 262.622 172.331 263.945C172.984 264.213 173.575 264.614 174.065 265.122C174.555 265.63 174.934 266.235 175.177 266.896C177.348 272.309 182.577 327.433 182.798 329.873C182.754 330.319 181.68 340.832 179.497 345.192C177.324 349.529 157.501 371.418 156.658 372.348L156.309 372.732L139.382 355.837Z" fill="#3F3D56"/>
<path d="M156.496 215.234C148.424 225.366 134.589 223.509 123.519 219.801C124.163 227.912 121.957 235.993 117.278 242.657C118.708 236.909 112.686 235.767 109.172 233.628C107.819 231.92 108.943 229.369 108.387 227.263C102.078 219.879 97.8968 214.31 105.996 205.645C110.737 199.312 116.428 191.402 125.461 193.067C132.609 184.745 144.323 186.909 152.315 192.731C155.908 195.384 159.177 198.449 162.054 201.863C161.133 206.357 159.421 210.651 156.995 214.544" fill="#2F2E41"/>
<path d="M746.992 481.542H-17.9922C-18.5247 481.542 -19.0354 481.459 -19.4119 481.313C-19.7885 481.166 -20 480.968 -20 480.76C-20 480.552 -19.7885 480.354 -19.4119 480.207C-19.0354 480.061 -18.5247 479.979 -17.9922 479.979H746.992C747.525 479.979 748.035 480.061 748.411 480.207C748.789 480.354 749 480.552 749 480.76C749 480.968 748.789 481.166 748.411 481.313C748.035 481.459 747.525 481.542 746.992 481.542Z" fill="#CCCCCC"/>
<path d="M150.048 383.272H122.362C123.4 370.522 126.747 358.617 122.362 350.114H150.048C155.26 361.167 155.26 372.219 150.048 383.272Z" fill="#6C63FF"/>
<path d="M137.95 377.012C137.777 375.638 137.304 374.319 136.564 373.146C135.824 371.974 134.835 370.978 133.668 370.228C132.5 369.479 131.182 368.995 129.807 368.807C128.431 368.621 127.032 368.738 125.706 369.151L111.807 352.521L99.6223 358.488L119.581 381.695C120.422 383.871 122.034 385.664 124.111 386.733C126.188 387.802 128.585 388.074 130.85 387.497C133.114 386.921 135.088 385.534 136.397 383.602C137.706 381.668 138.259 379.324 137.95 377.012Z" fill="#A0616A"/>
<path d="M111.011 374.033C109.768 373.103 80.5295 351.169 77.2628 344.649C73.9914 338.119 74.8024 318.78 74.8446 317.902C74.8955 317.597 79.986 287.376 84.2918 276.632C88.7593 265.486 99.9963 269.822 100.109 269.866L100.449 270.002L95.556 326.974L122.245 362.309L111.372 374.303L111.011 374.033Z" fill="#3F3D56"/>
</svg>
