<svg width="665" height="558" viewBox="0 0 665 558" fill="none" xmlns="http://www.w3.org/2000/svg">
<g clip-path="url(#clip0_16_175)">
<path d="M609.369 249.63H0V0H609.369V249.63ZM1.85434 247.776H607.514V1.85392H1.85434V247.776Z" fill="#3F3D56"/>
<path d="M86.0674 95.1404H47.772C45.1587 80.0359 45.1587 64.5951 47.772 49.4907H86.0674C81.7532 64.4016 81.7532 80.2295 86.0674 95.1404Z" fill="#FF6584"/>
<path d="M119.221 114.586H157.516C160.13 99.4815 160.13 84.0407 157.516 68.9362H119.221C123.535 83.8471 123.535 99.6749 119.221 114.586Z" fill="#E6E6E6"/>
<path d="M366.351 123.92H418.388C418.75 123.907 419.09 123.755 419.341 123.496C419.592 123.236 419.732 122.89 419.732 122.529C419.732 122.169 419.592 121.822 419.341 121.563C419.09 121.303 418.75 121.151 418.388 121.139H366.351C365.989 121.151 365.649 121.303 365.398 121.563C365.147 121.822 365.008 122.169 365.008 122.529C365.008 122.89 365.147 123.236 365.398 123.496C365.649 123.755 365.989 123.907 366.351 123.92Z" fill="#E6E6E6"/>
<path d="M417.037 110.802L425.166 118.221C426.097 119.07 428.653 120.822 429.232 121.931C430.426 124.225 429.142 123.701 427.095 124.496C422.067 126.497 417.431 129.374 413.408 132.994C412.062 134.18 414.035 136.14 415.375 134.961C419.045 131.662 423.262 129.029 427.835 127.178C429.476 126.529 432.588 126.149 433.366 124.196C434.321 121.805 431.283 120.041 429.843 118.728L419.003 108.835C417.683 107.631 415.711 109.592 417.037 110.802Z" fill="#E6E6E6"/>
<path d="M74.7168 180.4H113.012C115.626 165.295 115.626 149.854 113.012 134.75H74.7168C79.0311 149.662 79.0311 165.489 74.7168 180.4Z" fill="#6C63FF"/>
<path d="M372.338 91.4117H410.634C413.248 76.3074 413.248 60.8664 410.634 45.7621H372.338C376.652 60.673 376.652 76.5008 372.338 91.4117Z" fill="#6C63FF"/>
<path d="M251.1 166.42V53.7497L240.901 51.4767V176.616L317.856 175.83L317.597 165.74L251.1 166.42Z" fill="#F2F2F2"/>
<path d="M327.128 186.026H234.412V36.7856H327.128V186.026ZM236.266 184.172H325.274V38.6395H236.266V184.172Z" fill="#3F3D56"/>
<path d="M257.774 46.0552H242.756V47.9091H257.774V46.0552Z" fill="#3F3D56"/>
<path d="M257.774 50.6901H242.756V52.5439H257.774V50.6901Z" fill="#3F3D56"/>
<path d="M257.774 55.3248H242.756V57.1787H257.774V55.3248Z" fill="#3F3D56"/>
<path d="M314.33 135.043H250.174V136.897H314.33V135.043Z" fill="#3F3D56"/>
<path d="M314.33 145.239H250.174V147.093H314.33V145.239Z" fill="#3F3D56"/>
<path d="M314.33 155.437H250.174V157.29H314.33V155.437Z" fill="#3F3D56"/>
<path d="M313.221 58.1056C311.937 58.1056 310.682 57.7252 309.615 57.0122C308.548 56.2991 307.716 55.2857 307.224 54.1001C306.734 52.9144 306.605 51.6097 306.856 50.3511C307.106 49.0924 307.724 47.9362 308.631 47.0287C309.54 46.1214 310.696 45.5033 311.955 45.253C313.214 45.0026 314.519 45.1311 315.704 45.6222C316.891 46.1134 317.905 46.945 318.618 48.0121C319.33 49.0791 319.711 50.3337 319.711 51.6169C319.709 53.3373 319.025 54.9867 317.808 56.203C316.592 57.4196 314.941 58.1037 313.221 58.1056ZM313.221 46.9822C312.304 46.9822 311.408 47.254 310.645 47.7633C309.883 48.2725 309.289 48.9964 308.937 49.8434C308.587 50.6902 308.496 51.6222 308.674 52.5212C308.853 53.4202 309.295 54.246 309.943 54.8943C310.591 55.5424 311.418 55.9839 312.317 56.1628C313.215 56.3415 314.147 56.2497 314.995 55.899C315.843 55.5481 316.566 54.9541 317.075 54.1919C317.585 53.4298 317.856 52.5337 317.856 51.6169C317.855 50.3882 317.366 49.2102 316.498 48.3412C315.628 47.4724 314.449 46.9836 313.221 46.9822Z" fill="#3F3D56"/>
<path d="M315.076 113.723H249.247V71.0831H315.076V113.723ZM251.101 111.869H313.221V72.937H251.101V111.869Z" fill="#3F3D56"/>
<path d="M250.675 71.2286L249.678 72.7919L313.652 113.578L314.649 112.015L250.675 71.2286Z" fill="#3F3D56"/>
<path d="M313.65 71.2288L249.675 112.014L250.672 113.577L314.648 72.792L313.65 71.2288Z" fill="#3F3D56"/>
<path d="M486.602 166.42V53.7497L476.402 51.4767V176.616L553.357 175.83L553.098 165.74L486.602 166.42Z" fill="#F2F2F2"/>
<path d="M563.557 184.172H470.84V34.9316H563.557V184.172ZM472.694 182.318H561.702V36.7855H472.694V182.318Z" fill="#3F3D56"/>
<path d="M494.201 44.2012H479.184V46.0551H494.201V44.2012Z" fill="#3F3D56"/>
<path d="M494.201 48.8361H479.184V50.6899H494.201V48.8361Z" fill="#3F3D56"/>
<path d="M494.201 53.4708H479.184V55.3247H494.201V53.4708Z" fill="#3F3D56"/>
<path d="M549.649 56.2516C548.365 56.2516 547.111 55.8712 546.043 55.1582C544.976 54.4451 544.144 53.4317 543.652 52.2461C543.162 51.0604 543.033 49.7559 543.284 48.4971C543.535 47.2385 544.152 46.0822 545.06 45.1749C545.968 44.2674 547.124 43.6493 548.383 43.399C549.642 43.1486 550.947 43.2771 552.132 43.7682C553.319 44.2594 554.333 45.091 555.045 46.1581C555.758 47.2251 556.139 48.4797 556.139 49.7631C556.138 51.4833 555.453 53.1327 554.236 54.349C553.02 55.5656 551.369 56.2498 549.649 56.2516ZM549.649 45.1282C548.732 45.1282 547.836 45.4 547.073 45.9093C546.312 46.4185 545.717 47.1424 545.366 47.9894C545.015 48.8362 544.924 49.7682 545.102 50.6672C545.281 51.5662 545.723 52.3922 546.371 53.0403C547.019 53.6884 547.846 54.1299 548.745 54.3088C549.644 54.4875 550.576 54.3958 551.423 54.045C552.271 53.6941 552.994 53.1001 553.503 52.3379C554.013 51.5758 554.285 50.6797 554.285 49.7631C554.283 48.5342 553.794 47.3562 552.926 46.4872C552.056 45.6184 550.878 45.1296 549.649 45.1282Z" fill="#3F3D56"/>
<path d="M551.504 111.869H485.674V69.2292H551.504V111.869ZM487.528 110.015H549.649V71.0831H487.528V110.015Z" fill="#3F3D56"/>
<path d="M487.1 69.3745L486.103 70.9377L550.077 111.724L551.074 110.161L487.1 69.3745Z" fill="#3F3D56"/>
<path d="M550.08 69.3779L486.1 110.157L487.097 111.72L551.077 70.9413L550.08 69.3779Z" fill="#3F3D56"/>
<path d="M551.504 167.487H485.674V124.847H551.504V167.487ZM487.528 165.633H549.649V126.7H487.528V165.633Z" fill="#3F3D56"/>
<path d="M487.1 124.992L486.103 126.555L550.077 167.342L551.074 165.779L487.1 124.992Z" fill="#3F3D56"/>
<path d="M550.08 124.995L486.1 165.774L487.097 167.338L551.077 126.559L550.08 124.995Z" fill="#3F3D56"/>
<path d="M266.64 214.697H304.936C307.55 199.592 307.55 184.152 304.936 169.048H266.64C270.956 183.959 270.956 199.786 266.64 214.697Z" fill="#6C63FF"/>
<path d="M111.773 345.525V236.37C111.773 234.811 112.392 233.316 113.495 232.214C114.597 231.112 116.092 230.493 117.652 230.493C119.211 230.493 120.706 231.112 121.809 232.214C122.911 233.316 123.53 234.811 123.53 236.37V345.525C123.53 347.084 122.911 348.578 121.809 349.682C120.706 350.784 119.211 351.403 117.652 351.403C116.092 351.403 114.597 350.784 113.495 349.682C112.392 348.578 111.773 347.084 111.773 345.525Z" fill="#F0F0F0"/>
<path d="M97.7053 345.525V236.37C97.7053 234.811 98.3247 233.316 99.4272 232.214C100.53 231.112 102.025 230.493 103.584 230.493C105.143 230.493 106.639 231.112 107.741 232.214C108.844 233.316 109.463 234.811 109.463 236.37V345.525C109.463 347.084 108.844 348.578 107.741 349.682C106.639 350.784 105.143 351.403 103.584 351.403C102.025 351.403 100.53 350.784 99.4272 349.682C98.3247 348.578 97.7053 347.084 97.7053 345.525Z" fill="#F0F0F0"/>
<path d="M83.6379 345.525V236.37C83.6379 234.811 84.2574 233.316 85.36 232.214C86.4624 231.112 87.9577 230.493 89.517 230.493C91.0761 230.493 92.5714 231.112 93.674 232.214C94.7764 233.316 95.3958 234.811 95.3958 236.37V345.525C95.3958 347.084 94.7764 348.578 93.674 349.682C92.5714 350.784 91.0761 351.403 89.517 351.403C87.9577 351.403 86.4624 350.784 85.36 349.682C84.2574 348.578 83.6379 347.084 83.6379 345.525Z" fill="#F0F0F0"/>
<path d="M614.759 519.868C612.391 519.869 610.04 519.461 607.812 518.662L607.469 518.538L607.627 517.778C603.637 509.717 605.031 498.673 611.198 489.593C616.806 481.338 625.333 475.337 632.856 470.042C633.81 469.371 634.943 469 636.11 468.978C637.278 468.955 638.425 469.282 639.404 469.918C640.384 470.552 641.152 471.464 641.607 472.539C642.064 473.613 642.189 474.8 641.966 475.945L639.275 489.743C637.335 499.698 635.025 509.119 628.175 514.994C624.413 518.141 619.664 519.866 614.759 519.868Z" fill="#E6E6E6"/>
<path d="M632.375 543.711C629.77 543.696 627.209 543.03 624.927 541.774C622.645 540.518 620.711 538.712 619.304 536.519L619.109 536.216L619.574 535.806C620.778 529.242 626.438 523.393 634.038 520.877C640.946 518.591 648.573 518.965 655.296 519.293C656.185 519.336 657.041 519.642 657.755 520.172C658.469 520.703 659.01 521.432 659.309 522.27C659.608 523.108 659.651 524.016 659.434 524.877C659.216 525.74 658.748 526.518 658.088 527.115L650.522 533.941C645.025 538.902 639.542 543.38 632.928 543.701C632.744 543.708 632.559 543.712 632.375 543.711Z" fill="#E6E6E6"/>
<path d="M608.898 551.009C607.78 542.693 606.632 534.269 607.414 525.863C608.111 518.397 610.339 511.104 614.876 505.126C617.274 501.969 620.204 499.255 623.535 497.106C624.402 496.548 625.198 497.951 624.337 498.507C618.56 502.255 614.119 507.733 611.644 514.158C608.881 521.341 608.438 529.171 608.914 536.802C609.202 541.416 609.812 546 610.427 550.578C610.476 550.783 610.447 551.001 610.345 551.185C610.242 551.369 610.073 551.509 609.873 551.575C609.772 551.603 609.666 551.61 609.562 551.596C609.459 551.582 609.359 551.548 609.267 551.495C609.177 551.442 609.097 551.373 609.033 551.289C608.97 551.206 608.924 551.11 608.898 551.009Z" fill="#F2F2F2"/>
<path d="M605.74 555.79C611.118 546.066 617.354 535.259 628.499 531.804C631.594 530.848 634.846 530.504 638.071 530.794C639.088 530.884 638.835 532.486 637.819 532.396C632.4 531.94 626.993 533.402 622.544 536.526C618.235 539.522 614.882 543.689 612.043 548.107C610.305 550.812 608.747 553.634 607.189 556.451C606.692 557.351 605.236 556.701 605.74 555.79Z" fill="#F2F2F2"/>
<path d="M603.321 555.648L608.75 555.772L576.013 380.924L570.584 381.948L579.132 427.306H551.591L560.139 381.948L554.71 380.924L522.246 555.772L527.402 555.648L544.47 465.09H586.253L603.321 555.648ZM545.735 458.373L550.325 434.023H580.397L584.987 458.373H545.735Z" fill="#CACACA"/>
<path d="M366.244 348.31V290.89C366.244 289.185 368.883 287.798 372.123 287.798C375.366 287.798 378.002 289.185 378.002 290.89V348.31C378.002 350.016 375.366 351.402 372.123 351.402C368.883 351.402 366.244 350.016 366.244 348.31Z" fill="#F0F0F0"/>
<path d="M352.178 348.31V290.89C352.178 289.185 354.815 287.798 358.057 287.798C361.299 287.798 363.936 289.185 363.936 290.89V348.31C363.936 350.016 361.299 351.402 358.057 351.402C354.815 351.402 352.178 350.016 352.178 348.31Z" fill="#F0F0F0"/>
<path d="M338.11 348.31V290.89C338.11 289.185 340.748 287.798 343.989 287.798C347.231 287.798 349.868 289.185 349.868 290.89V348.31C349.868 350.016 347.231 351.402 343.989 351.402C340.748 351.402 338.11 350.016 338.11 348.31Z" fill="#F0F0F0"/>
<path d="M456.456 306.083C456.43 305.909 456.367 305.742 456.272 305.593C456.178 305.445 456.052 305.317 455.905 305.22L411.584 275.968C412.252 275.689 412.81 275.199 413.174 274.575C413.617 273.802 413.736 272.887 413.507 272.027C413.277 271.167 412.714 270.433 411.946 269.986L408.309 267.887C407.536 267.445 406.621 267.325 405.761 267.556C404.901 267.786 404.167 268.347 403.719 269.117C403.478 269.54 403.333 270.011 403.294 270.496L371.301 249.38C370.228 246.779 368.597 244.443 366.528 242.535C364.458 240.627 361.997 239.194 359.317 238.334V229.024H347.559V238.334C343.658 239.581 340.254 242.035 337.838 245.341C335.423 248.649 334.121 252.637 334.121 256.731V259.251H345.879C345.879 261.255 346.675 263.177 348.092 264.594C349.51 266.011 351.433 266.807 353.438 266.807C355.442 266.807 357.364 266.011 358.783 264.594C360.199 263.177 360.996 261.255 360.996 259.251H372.754V256.731C372.752 255.524 372.639 254.319 372.414 253.133L453.35 306.552L419.729 347.418C419.467 347.417 419.208 347.414 418.945 347.414C416.263 347.414 413.664 347.478 411.187 347.587C411.336 347.172 411.402 346.731 411.379 346.291C411.331 345.402 410.932 344.568 410.27 343.973C409.609 343.378 408.738 343.068 407.849 343.112L403.657 343.331C402.768 343.379 401.934 343.778 401.339 344.438C400.742 345.1 400.433 345.97 400.476 346.859C400.508 347.383 400.663 347.894 400.931 348.347C393.517 349.135 388.711 350.22 388.711 350.773C388.711 351.678 401.614 350.816 417.762 350.776C417.837 350.985 417.966 351.172 418.135 351.316C418.305 351.46 418.51 351.555 418.731 351.594C418.949 351.633 419.175 351.612 419.384 351.534C419.592 351.457 419.778 351.325 419.917 351.154L420.229 350.776C436.332 350.82 449.18 351.677 449.18 350.773C449.18 349.921 437.757 347.802 422.955 347.462L456.183 307.072C456.295 306.935 456.378 306.777 456.426 306.606C456.471 306.436 456.482 306.258 456.456 306.083Z" fill="#CCCCCC"/>
<path d="M457.668 556.068H354.186C352.095 556.066 350.091 555.234 348.612 553.756C347.132 552.277 346.301 550.272 346.299 548.182V378.39C346.297 376.523 345.554 374.731 344.232 373.41C342.911 372.089 341.119 371.347 339.251 371.344H97.1949C95.3263 371.347 93.535 372.089 92.2136 373.41C90.8924 374.731 90.1491 376.523 90.1469 378.39V548.182C90.1445 550.272 89.3127 552.277 87.834 553.756C86.3552 555.234 84.3502 556.066 82.259 556.068H78.7184C76.627 556.066 74.6221 555.234 73.1434 553.756C71.6647 552.277 70.8329 550.272 70.8306 548.182V369.245C70.8361 364.237 72.8287 359.435 76.3714 355.893C79.9139 352.351 84.717 350.359 89.727 350.353H446.66C451.67 350.359 456.473 352.351 460.015 355.893C463.558 359.435 465.551 364.237 465.556 369.245V548.182C465.553 550.272 464.723 552.277 463.243 553.756C461.764 555.234 459.759 556.066 457.668 556.068Z" fill="#E4E4E4"/>
<path d="M465.137 394.435H346.718V399.473H465.137V394.435Z" fill="white"/>
<path d="M465.137 462.446H346.718V467.485H465.137V462.446Z" fill="white"/>
<path d="M248.696 349.524L245.292 348.091L242.957 331.034H211.866L209.335 348.022L206.291 349.543C206.145 349.617 206.027 349.736 205.96 349.884C205.89 350.031 205.872 350.198 205.91 350.356C205.947 350.515 206.037 350.657 206.165 350.758C206.293 350.859 206.451 350.913 206.613 350.913H248.415C248.582 350.913 248.744 350.856 248.873 350.749C249.002 350.644 249.09 350.497 249.124 350.334C249.157 350.169 249.132 350 249.054 349.852C248.975 349.705 248.849 349.589 248.696 349.524Z" fill="#E6E6E6"/>
<path d="M303.946 333.303H151.218C150.417 333.302 149.649 332.982 149.083 332.414C148.517 331.848 148.198 331.08 148.198 330.278V308.746H306.965V330.278C306.965 331.08 306.648 331.848 306.082 332.414C305.515 332.982 304.748 333.302 303.946 333.303Z" fill="#CCCCCC"/>
<path d="M307.125 318.923H148.06V226.793C148.061 225.825 148.445 224.899 149.129 224.215C149.813 223.531 150.74 223.147 151.708 223.146H303.478C304.445 223.147 305.371 223.531 306.056 224.215C306.74 224.899 307.125 225.825 307.125 226.793V318.923Z" fill="#3F3D56"/>
<path d="M297.625 312.236H157.561C156.814 312.235 156.099 311.939 155.572 311.411C155.046 310.885 154.749 310.17 154.748 309.424V232.644C154.749 231.898 155.046 231.184 155.572 230.656C156.099 230.13 156.814 229.834 157.561 229.832H297.625C298.37 229.834 299.085 230.13 299.613 230.656C300.139 231.184 300.437 231.898 300.437 232.644V309.424C300.437 310.17 300.139 310.885 299.613 311.411C299.085 311.939 298.37 312.235 297.625 312.236Z" fill="white"/>
<path d="M454.64 238.647C455.979 238.454 457.345 238.557 458.641 238.949C459.937 239.34 461.131 240.012 462.139 240.915C463.148 241.818 463.945 242.931 464.477 244.176C465.008 245.42 465.26 246.766 465.214 248.119L495.923 259.937L482.01 269.875L454.982 257.129C452.714 256.903 450.609 255.852 449.063 254.177C447.519 252.501 446.642 250.318 446.599 248.04C446.558 245.761 447.353 243.547 448.834 241.816C450.316 240.084 452.381 238.957 454.64 238.647Z" fill="#9E616A"/>
<path d="M571.242 232.845L576.436 242.288C575.182 248.278 571.937 253.667 567.229 257.58C559.276 264.286 517.686 289.266 517.686 289.266L465.181 262.912L474.367 250.71L515.588 264.521C530.879 250.085 549.332 239.419 569.476 233.376L571.242 232.845Z" fill="#FF6584"/>
<path d="M561.582 389.109C584.213 389.109 602.558 383.133 602.558 375.76C602.558 368.388 584.213 362.411 561.582 362.411C538.951 362.411 520.604 368.388 520.604 375.76C520.604 383.133 538.951 389.109 561.582 389.109Z" fill="#CACACA"/>
<path d="M469.654 544.337L458.773 541.329L465.196 497.938L481.256 502.377L469.654 544.337Z" fill="#9E616A"/>
<path d="M469.514 555.648L434.429 545.952L434.552 545.508C435.553 541.887 437.952 538.812 441.22 536.959C444.489 535.107 448.36 534.628 451.983 535.629L473.412 541.551L469.514 555.648Z" fill="#2F2E41"/>
<path d="M438.107 544.476L427.78 539.918L440.454 497.926L455.696 504.654L438.107 544.476Z" fill="#9E616A"/>
<path d="M436.32 555.649L403.021 540.948L403.207 540.526C404.725 537.091 407.546 534.398 411.05 533.04C414.554 531.683 418.454 531.773 421.891 533.29H421.892L442.23 542.269L436.32 555.649Z" fill="#2F2E41"/>
<path d="M593.471 343.123C593.471 343.123 598.946 360.079 565.361 381.521L522.109 424.61L477.166 532.091L450.484 520.132L455.718 506.167L459.229 496.796L461.026 492.002L462.951 486.863L491.515 410.634L515.511 368.632L516.206 345.84L522.109 329.774L564.926 314.585L593.471 343.123Z" fill="#2F2E41"/>
<path d="M571.636 343.963C571.636 343.963 577.11 360.918 543.525 382.36L500.272 425.451L455.33 532.932L428.649 520.971L433.882 507.006L437.394 497.636L439.19 492.841L441.115 487.702L469.681 411.473L477.715 397.41C488.312 378.857 501.192 361.702 516.049 346.346L523.926 338.206L524.765 325.612L543.09 315.424L571.636 343.963Z" fill="#2F2E41"/>
<path d="M545.762 260.958L559.2 232.41L582.649 229.212C582.649 229.212 600.959 252.536 596.152 285.308C594.349 297.598 592.88 309.834 592.792 320.573C592.769 323.431 595.27 324.708 595.312 327.291C595.353 329.829 590.572 333.962 591.953 335.688C593.927 338.065 595.101 341.002 595.312 344.084C593.648 348.044 543.278 326.591 522.108 329.774L545.762 260.958Z" fill="#FF6584"/>
<path d="M579.068 214.84C585.053 204.772 581.743 191.761 571.674 185.777C561.605 179.792 548.59 183.102 542.604 193.169C536.618 203.235 539.93 216.248 549.998 222.232C560.068 228.216 573.082 224.907 579.068 214.84Z" fill="#9E616A"/>
<path d="M574.396 196.391C574.356 196.949 574.3 197.687 574.234 198.523C574.169 200.812 574.815 203.065 576.082 204.972C577.269 206.978 575.852 219.096 575.852 219.096C610.596 194.883 583.144 170.558 572.405 172.72C572.629 169.642 563.871 170.862 563.871 170.862C560.533 165.665 553.22 172.562 553.22 172.562L554.631 170.189C548.953 171.633 543.341 189.177 543.341 189.177C545.267 196.747 574.621 193.312 574.396 196.391Z" fill="#2F2E41"/>
<path d="M439.618 272.189C451.557 256.312 460.994 238.702 467.605 219.97C467.987 218.85 467.961 217.63 467.527 216.528C467.095 215.425 466.285 214.512 465.243 213.951L424.388 192.064C423.727 191.708 422.993 191.506 422.243 191.476C421.492 191.445 420.746 191.586 420.057 191.888C419.357 192.193 418.735 192.653 418.239 193.234C417.743 193.814 417.387 194.501 417.196 195.24C412.442 213.292 403.503 229.969 391.104 243.925C390.594 244.493 390.22 245.17 390.011 245.905C389.802 246.639 389.763 247.411 389.898 248.163C390.026 248.903 390.323 249.603 390.765 250.211C391.205 250.819 391.78 251.319 392.443 251.67L433.297 273.557C434.343 274.114 435.551 274.283 436.708 274.032C437.866 273.781 438.898 273.128 439.618 272.189Z" fill="#CCCCCC"/>
<path d="M436.83 270.094C436.61 270.368 436.302 270.558 435.958 270.629C435.614 270.699 435.255 270.648 434.945 270.483L394.09 248.597C393.892 248.494 393.72 248.346 393.588 248.165C393.457 247.985 393.368 247.776 393.331 247.555C393.289 247.321 393.3 247.082 393.367 246.855C393.432 246.628 393.55 246.419 393.709 246.244C406.472 231.877 415.675 214.707 420.57 196.125C420.626 195.895 420.736 195.682 420.888 195.502C421.042 195.321 421.234 195.178 421.45 195.085C421.655 194.993 421.878 194.951 422.103 194.959C422.327 194.969 422.546 195.03 422.741 195.138L463.595 217.023C463.905 217.191 464.146 217.461 464.278 217.788C464.41 218.113 464.422 218.476 464.315 218.811C457.824 237.207 448.555 254.502 436.83 270.094Z" fill="white"/>
<path d="M422.538 215.931L450.715 232.444C453.52 234.087 456.058 229.734 453.259 228.095L425.08 211.582C422.277 209.938 419.737 214.291 422.538 215.931Z" fill="#6C63FF"/>
<path d="M417.498 225.168L445.677 241.68C448.48 243.324 451.019 238.971 448.22 237.33L420.042 220.817C417.238 219.175 414.699 223.527 417.498 225.168Z" fill="#6C63FF"/>
<path d="M411.619 235.243L439.798 251.756C442.601 253.4 445.14 249.047 442.341 247.406L414.163 230.893C411.358 229.251 408.82 233.603 411.619 235.243Z" fill="#6C63FF"/>
<path d="M405.74 243.64L433.919 260.153C436.722 261.796 439.261 257.443 436.462 255.802L408.284 239.291C405.479 237.647 402.941 242 405.74 243.64Z" fill="#6C63FF"/>
<path d="M534.199 340.769L544.777 364.554C545.032 365.123 545.141 365.746 545.094 366.369C545.048 366.991 544.846 367.592 544.51 368.117C544.112 368.744 543.537 369.24 542.86 369.541C542.182 369.843 541.428 369.937 540.697 369.811C540.448 369.774 540.203 369.709 539.967 369.618C539.032 369.256 538.279 368.539 537.87 367.624L527.292 343.84C527.09 343.387 526.979 342.899 526.967 342.403C526.954 341.906 527.039 341.413 527.217 340.949C527.578 340.014 528.294 339.26 529.209 338.853C530.126 338.446 531.166 338.418 532.101 338.778C533.037 339.138 533.79 339.854 534.199 340.769Z" fill="#6C63FF"/>
<path d="M543.924 362.635L546.043 367.435L547.127 374.241C547.199 374.689 547.12 375.148 546.904 375.546C546.688 375.945 546.346 376.262 545.93 376.446C545.516 376.631 545.052 376.672 544.611 376.566C544.17 376.459 543.777 376.21 543.492 375.857L539.106 370.401L537.017 365.706L543.924 362.635Z" fill="#3F3D56"/>
<path d="M524.941 334.153L526.457 343.674C526.507 343.987 526.628 344.282 526.809 344.541C526.992 344.798 527.231 345.01 527.508 345.161C527.785 345.312 528.094 345.396 528.41 345.409C528.726 345.421 529.04 345.36 529.328 345.233L530.831 344.564L533.732 351.086C533.822 351.289 533.99 351.447 534.198 351.528C534.405 351.606 534.637 351.601 534.84 351.511C535.042 351.42 535.202 351.252 535.282 351.046C535.362 350.838 535.357 350.607 535.267 350.403L532.365 343.882L533.868 343.214C534.367 342.991 534.757 342.582 534.954 342.073C535.15 341.564 535.137 340.999 534.916 340.499C534.843 340.334 534.749 340.179 534.634 340.039L528.578 332.536C528.292 332.183 527.899 331.934 527.458 331.827C527.017 331.721 526.553 331.764 526.139 331.948C525.723 332.132 525.381 332.448 525.165 332.846C524.949 333.245 524.87 333.705 524.941 334.153Z" fill="#3F3D56"/>
<path d="M529.329 351.339C529.568 350.007 530.095 348.743 530.875 347.637C531.655 346.53 532.668 345.608 533.843 344.935C535.017 344.264 536.325 343.857 537.674 343.743C539.022 343.631 540.38 343.815 541.65 344.285L562.534 318.862L567.591 335.192L546.984 356.831C546.055 358.912 544.396 360.579 542.319 361.518C540.243 362.458 537.894 362.602 535.717 361.925C533.541 361.248 531.689 359.796 530.511 357.846C529.333 355.895 528.914 353.58 529.329 351.339Z" fill="#9E616A"/>
<path d="M555.621 349.687L546.422 336.405L572.541 301.587L559.086 272.762L560.065 238.475L571.185 236.422L571.322 236.491C576.727 239.602 580.906 244.468 583.163 250.28C585.937 257.213 592.129 283.237 595.573 298.133C596.249 301.018 596.176 304.031 595.357 306.881C594.54 309.73 593.007 312.324 590.903 314.413L555.621 349.687Z" fill="#FF6584"/>
<path d="M296.643 285.505C296.567 286.15 296.542 286.801 296.567 287.45L249.476 321.703L236.538 315.978L225.346 334.369L247.264 346.728C249.034 347.727 251.081 348.124 253.097 347.861C255.112 347.597 256.989 346.687 258.443 345.266L305.839 298.981C308.266 299.599 310.821 299.462 313.168 298.59C315.515 297.719 317.539 296.153 318.975 294.103C320.41 292.053 321.186 289.613 321.201 287.111C321.216 284.608 320.468 282.161 319.059 280.094C317.647 278.025 315.641 276.437 313.304 275.537C310.969 274.638 308.414 274.471 305.981 275.058C303.547 275.646 301.351 276.96 299.683 278.827C298.016 280.692 296.955 283.022 296.643 285.505Z" fill="#FFB6B6"/>
<path d="M247.952 322.955L234.219 345.833C233.829 346.485 233.302 347.043 232.676 347.472C232.049 347.901 231.339 348.191 230.589 348.321C229.841 348.45 229.074 348.416 228.34 348.222C227.606 348.029 226.922 347.68 226.335 347.198L205.773 330.314C202.455 328.296 200.071 325.045 199.146 321.272C198.219 317.501 198.829 313.516 200.837 310.191C202.845 306.867 206.091 304.474 209.861 303.538C213.631 302.602 217.619 303.199 220.95 305.197L245.448 315.357C246.149 315.648 246.779 316.087 247.296 316.644C247.812 317.2 248.203 317.861 248.44 318.582C248.678 319.303 248.757 320.066 248.674 320.821C248.589 321.576 248.343 322.304 247.952 322.955Z" fill="#6C63FF"/>
<path d="M189.111 521.814H216.029V477.216H189.111V521.814Z" fill="#CACACA"/>
<path d="M214.68 500.815L211.225 505.905L275.832 549.735L279.286 544.644L214.68 500.815Z" fill="#CACACA"/>
<path d="M190.46 500.815L125.854 544.644L129.309 549.735L193.915 505.905L190.46 500.815Z" fill="#CACACA"/>
<path d="M277.559 555.648C282.232 555.648 286.02 551.861 286.02 547.19C286.02 542.519 282.232 538.732 277.559 538.732C272.886 538.732 269.099 542.519 269.099 547.19C269.099 551.861 272.886 555.648 277.559 555.648Z" fill="#CACACA"/>
<path d="M202.186 555.648C206.858 555.648 210.646 551.861 210.646 547.19C210.646 542.519 206.858 538.732 202.186 538.732C197.513 538.732 193.725 542.519 193.725 547.19C193.725 551.861 197.513 555.648 202.186 555.648Z" fill="#CACACA"/>
<path d="M127.582 555.648C132.254 555.648 136.042 551.861 136.042 547.19C136.042 542.519 132.254 538.732 127.582 538.732C122.909 538.732 119.121 542.519 119.121 547.19C119.121 551.861 122.909 555.648 127.582 555.648Z" fill="#CACACA"/>
<path d="M205.262 503.36H199.11V547.19H205.262V503.36Z" fill="#CACACA"/>
<path d="M196.802 497.208H208.339V438.001H196.802V497.208Z" fill="#CACACA"/>
<path d="M169.499 447.228V433.386C169.501 430.838 170.515 428.394 172.317 426.593C174.12 424.792 176.563 423.778 179.113 423.775H230.643C233.191 423.778 235.636 424.792 237.438 426.593C239.241 428.394 240.255 430.838 240.257 433.386V447.228C240.255 449.776 239.241 452.22 237.438 454.021C235.636 455.822 233.191 456.836 230.643 456.839H179.113C176.563 456.836 174.12 455.822 172.317 454.021C170.515 452.22 169.501 449.776 169.499 447.228Z" fill="#3F3D56"/>
<path d="M262.569 541.837L276.82 541.836L283.6 504.882L262.567 504.883L262.569 541.837Z" fill="#FFB8B8"/>
<path d="M258.935 555.649L304.886 555.646V555.066C304.886 552.718 304.424 550.392 303.525 548.223C302.626 546.054 301.309 544.082 299.649 542.422C297.988 540.762 296.016 539.443 293.846 538.545C291.676 537.646 289.35 537.184 287.001 537.184L258.933 537.185L258.935 555.649Z" fill="#2F2E41"/>
<path d="M283.884 518.922L312.296 455.226C314.668 449.856 314.93 443.791 313.03 438.238C311.131 432.685 307.209 428.051 302.045 425.26L240.42 392.221L212.299 389.83L186.359 387.472L186.172 387.789C185.932 388.194 180.355 397.824 184.126 408.385C186.985 416.395 194.423 422.652 206.234 426.982C233.801 437.087 265.646 445.724 278.058 448.968C278.606 449.108 279.119 449.363 279.562 449.716C280.005 450.068 280.368 450.511 280.628 451.014C280.889 451.511 281.042 452.056 281.082 452.616C281.121 453.175 281.044 453.737 280.855 454.266L254.461 513.554C254.184 514.306 254.086 515.112 254.171 515.908C254.255 516.704 254.522 517.471 254.95 518.148C255.378 518.825 255.956 519.394 256.638 519.812C257.321 520.232 258.091 520.488 258.889 520.561L278.612 521.997C278.779 522.012 278.945 522.021 279.112 522.021C280.121 522.021 281.11 521.727 281.958 521.178C282.804 520.628 283.474 519.844 283.884 518.922Z" fill="#2F2E41"/>
<path d="M253.27 541.837L267.52 541.836L274.301 504.882L253.268 504.883L253.27 541.837Z" fill="#FFB8B8"/>
<path d="M249.635 555.649L295.587 555.646V555.066C295.587 552.718 295.124 550.392 294.225 548.223C293.326 546.054 292.009 544.082 290.349 542.422C288.688 540.762 286.716 539.443 284.546 538.545C282.376 537.646 280.051 537.184 277.702 537.184L249.635 537.185V555.649Z" fill="#2F2E41"/>
<path d="M273.422 522.408L301.834 458.712C304.206 453.342 304.468 447.278 302.568 441.724C300.669 436.172 296.746 431.538 291.583 428.746L229.958 395.708L201.837 393.317L181.52 391.554L181.523 391.276C181.283 391.68 175.706 401.31 179.476 411.872C182.336 419.882 183.961 426.139 195.772 430.469C223.339 440.574 255.183 449.211 267.595 452.455C268.144 452.595 268.657 452.85 269.1 453.203C269.542 453.554 269.906 453.997 270.165 454.5C270.425 454.997 270.58 455.543 270.621 456.102C270.659 456.661 270.582 457.224 270.393 457.752L243.998 517.04C243.722 517.792 243.624 518.598 243.709 519.394C243.793 520.19 244.06 520.957 244.488 521.634C244.915 522.312 245.494 522.881 246.177 523.299C246.859 523.718 247.629 523.974 248.427 524.048L268.15 525.484C268.317 525.499 268.484 525.507 268.65 525.507C269.659 525.507 270.648 525.214 271.494 524.664C272.342 524.114 273.011 523.331 273.422 522.408Z" fill="#2F2E41"/>
<path d="M255.601 248.051C259.249 232.714 249.771 217.324 234.43 213.677C219.09 210.03 203.697 219.506 200.049 234.843C196.401 250.179 205.879 265.569 221.219 269.216C236.56 272.863 251.953 263.388 255.601 248.051Z" fill="#FFB8B8"/>
<path d="M326.239 351.116C338.179 335.239 347.616 317.629 354.226 298.897C354.608 297.777 354.582 296.557 354.148 295.455C353.716 294.353 352.906 293.439 351.863 292.878L311.009 270.993C310.349 270.636 309.615 270.435 308.864 270.404C308.113 270.374 307.367 270.514 306.679 270.817C305.978 271.12 305.356 271.581 304.86 272.161C304.364 272.743 304.008 273.428 303.817 274.168C299.063 292.219 290.125 308.897 277.725 322.852C277.216 323.421 276.842 324.098 276.633 324.832C276.423 325.566 276.385 326.339 276.519 327.09C276.648 327.83 276.944 328.53 277.386 329.138C277.826 329.746 278.401 330.246 279.065 330.598L319.919 352.484C320.964 353.041 322.172 353.21 323.33 352.959C324.487 352.709 325.518 352.055 326.239 351.116Z" fill="#CCCCCC"/>
<path d="M323.451 349.021C323.231 349.296 322.922 349.485 322.579 349.556C322.234 349.626 321.877 349.575 321.567 349.41L280.711 327.525C280.513 327.421 280.341 327.273 280.21 327.092C280.078 326.912 279.99 326.703 279.952 326.483C279.911 326.249 279.922 326.01 279.987 325.782C280.053 325.555 280.171 325.346 280.33 325.171C293.094 310.805 302.295 293.634 307.191 275.052C307.248 274.823 307.357 274.609 307.51 274.429C307.662 274.248 307.854 274.105 308.072 274.013C308.277 273.921 308.5 273.878 308.724 273.887C308.947 273.896 309.166 273.957 309.363 274.065L350.217 295.95C350.525 296.118 350.768 296.388 350.899 296.715C351.031 297.04 351.043 297.403 350.937 297.738C344.446 316.134 335.176 333.429 323.451 349.021Z" fill="white"/>
<path d="M309.159 294.859L337.337 311.372C340.14 313.014 342.68 308.661 339.881 307.022L311.702 290.509C308.899 288.865 306.359 293.219 309.159 294.859Z" fill="#CCCCCC"/>
<path d="M304.119 304.095L332.298 320.608C335.101 322.251 337.64 317.898 334.841 316.257L306.662 299.744C303.859 298.102 301.32 302.455 304.119 304.095Z" fill="#CCCCCC"/>
<path d="M300.16 313.296L325.788 328.506C328.337 330.019 331.064 326.89 328.517 325.379L302.891 310.169C300.341 308.656 297.614 311.785 300.16 313.296Z" fill="#CCCCCC"/>
<path d="M292.361 322.567L320.54 339.08C323.343 340.723 325.882 336.37 323.083 334.731L294.905 318.218C292.101 316.574 289.562 320.928 292.361 322.567Z" fill="#CCCCCC"/>
<path d="M244.286 394.534L187.787 394.196L187.771 393.793C186.694 365.451 190.159 339.779 198.363 315.307C198.48 314.391 198.604 313.412 198.728 312.451C200.129 301.503 201.243 292.81 211.656 289.573C210.788 288.42 210.277 287.038 210.184 285.598C210.119 284.641 210.243 283.68 210.554 282.772C210.862 281.863 211.35 281.027 211.986 280.308C212.595 279.615 213.334 279.048 214.164 278.644C214.994 278.24 215.895 278.004 216.818 277.952L236.927 277.266C237.983 277.26 239.012 277.608 239.848 278.256C241.378 279.393 242.454 281.038 242.882 282.896C243.311 284.754 243.063 286.705 242.185 288.397C241.948 288.868 241.857 289.084 241.822 289.177C242.537 292.922 244.659 297.37 246.904 302.077C250.118 308.818 253.761 316.457 254.697 324.63C255.204 329.043 254.993 333.508 254.075 337.853C253.655 340.194 253.56 342.583 253.788 344.951C253.972 348.462 254.146 351.777 252.16 354.984C251.654 355.853 251.075 356.779 250.395 357.805L247.603 364.479L244.286 394.534Z" fill="#6C63FF"/>
<path d="M159.5 434.195V318.774C159.504 315.014 161.001 311.408 163.66 308.748C166.32 306.089 169.927 304.593 173.689 304.589H177.613C181.376 304.593 184.982 306.089 187.643 308.748C190.302 311.408 191.799 315.014 191.803 318.774V434.195C191.799 437.957 190.302 441.562 187.643 444.222C184.982 446.88 181.376 448.377 177.613 448.381H173.689C169.927 448.377 166.32 446.88 163.66 444.222C161.001 441.562 159.504 437.957 159.5 434.195Z" fill="#3F3D56"/>
<path d="M311.011 330.294C310.605 330.803 310.241 331.341 309.919 331.906L251.838 336.146L243.872 324.457L224.655 334.17L236.747 356.234C237.723 358.016 239.252 359.434 241.102 360.274C242.954 361.113 245.027 361.331 247.013 360.892L311.706 346.594C313.441 348.397 315.683 349.631 318.137 350.129C320.59 350.626 323.137 350.366 325.437 349.381C327.739 348.397 329.686 346.735 331.02 344.618C332.354 342.5 333.012 340.027 332.905 337.526C332.798 335.026 331.933 332.618 330.425 330.621C328.915 328.625 326.833 327.135 324.457 326.35C322.08 325.565 319.521 325.522 317.118 326.226C314.717 326.931 312.587 328.35 311.011 330.294Z" fill="#FFB6B6"/>
<path d="M249.883 336.406L226.139 348.591C225.465 348.937 224.723 349.134 223.964 349.168C223.205 349.201 222.447 349.073 221.744 348.787C221.04 348.502 220.406 348.069 219.885 347.518C219.363 346.965 218.967 346.308 218.723 345.589L210.173 320.397C208.419 316.94 208.108 312.927 209.306 309.24C210.502 305.553 213.111 302.489 216.563 300.72C206.037 306.12 227.958 290.779 236.324 307.074L251.768 328.632C252.209 329.248 252.513 329.954 252.658 330.699C252.802 331.444 252.784 332.212 252.605 332.95C252.427 333.688 252.092 334.378 251.622 334.974C251.151 335.571 250.559 336.059 249.883 336.406Z" fill="#6C63FF"/>
<path d="M214.927 269.209C213.208 269.209 211.313 268.381 209.174 266.705C202.884 261.766 198.388 254.901 196.375 247.161C194.362 239.422 194.945 231.236 198.034 223.86C199.588 220.148 202.496 215.103 207.518 212.147C211.128 210.021 215.369 209.254 219.061 208.702C222.258 208.223 225.494 207.842 228.68 207.57C232.488 207.245 236.885 207.025 240.896 208.548C243.835 209.665 246.337 211.637 248.755 213.544C249.599 214.208 250.471 214.896 251.344 215.533C253.46 217.182 255.9 218.368 258.507 219.01C259.057 219.124 259.575 219.355 260.027 219.687C260.48 220.018 260.857 220.443 261.131 220.933C261.412 221.43 261.581 221.983 261.63 222.552C261.678 223.121 261.605 223.694 261.412 224.232C261.034 225.289 260.695 226.243 261.383 227.276C261.638 227.64 261.979 227.937 262.375 228.138C262.772 228.34 263.211 228.442 263.656 228.434C263.89 228.43 264.123 228.485 264.33 228.593C264.538 228.702 264.717 228.862 264.847 229.056C264.98 229.248 265.064 229.471 265.091 229.704C265.118 229.936 265.088 230.173 265.003 230.39L264.893 230.676C265.188 230.703 265.473 230.802 265.721 230.964C265.97 231.126 266.176 231.346 266.321 231.605C266.537 231.973 266.62 232.405 266.557 232.827C266.494 233.25 266.289 233.637 265.976 233.928C263.427 236.352 260.252 238.015 256.806 238.726C254.449 239.188 252.024 239.183 249.668 238.709L249.29 238.636L249.336 238.216C239.809 234.818 231.21 240.584 226.307 247.175L225.598 246.727C225.72 246.482 225.791 246.215 225.806 245.941C225.821 245.667 225.781 245.393 225.688 245.135C225.59 244.826 225.43 244.54 225.221 244.292C225.011 244.044 224.755 243.839 224.467 243.691C223.882 243.45 223.24 243.388 222.62 243.511C222.001 243.634 221.432 243.939 220.985 244.385C220.531 244.862 220.18 245.429 219.956 246.048C219.732 246.668 219.639 247.327 219.684 247.985C219.813 249.378 220.168 250.74 220.736 252.019C220.965 252.631 221.204 253.264 221.398 253.901C222.483 257.526 222.194 261.422 220.585 264.846C219.844 266.408 218.502 268.401 216.322 269.018C215.869 269.146 215.399 269.211 214.927 269.209Z" fill="#2F2E41"/>
<path d="M679 557.327H1.00003C0.735314 557.327 0.481712 557.22 0.294803 557.034C0.107895 556.847 0.00292969 556.592 0.00292969 556.327C0.00292969 556.063 0.107895 555.81 0.294803 555.621C0.481712 555.434 0.735314 555.329 1.00003 555.328H679C679.265 555.328 679.519 555.433 679.706 555.621C679.895 555.808 680 556.063 680 556.327C680 556.593 679.895 556.847 679.706 557.035C679.519 557.222 679.265 557.327 679 557.327Z" fill="#CACACA"/>
</g>
<defs>
<clipPath id="clip0_16_175">
<rect width="680" height="558" fill="white"/>
</clipPath>
</defs>
</svg>
